Coordinates
version=1
nRows=22
nColumns=24
inDegrees=yes

Units are S.I. units (second, meters, Newtons, ...)
Angles are in degrees.

endheader
time	pelvis_tilt	pelvis_list	pelvis_rotation	pelvis_tx	pelvis_ty	pelvis_tz	hip_flexion_r	hip_adduction_r	hip_rotation_r	knee_angle_r	ankle_angle_r	subtalar_angle_r	mtp_angle_r	hip_flexion_l	hip_adduction_l	hip_rotation_l	knee_angle_l	ankle_angle_l	subtalar_angle_l	mtp_angle_l	lumbar_extension	lumbar_bending	lumbar_rotation
      0.97500000	      7.72399145	     -3.60427192	     -0.21926180	     -0.32973404	      1.08559860	      0.35512987	     -4.23928979	      9.32035184	     -9.25731247	     -6.47488150	      0.85979867	     -4.17917534	      3.03770849	      4.94268922	     -6.18253839	     -0.88630614	    -59.91724148	      0.09334704	      0.88698915	     19.44108218	     -1.57319284	      7.94422860	      0.04679244
      0.97916667	      7.71299377	     -3.51994668	     -0.42263172	     -0.32520166	      1.08599146	      0.35565901	     -4.60584273	      9.25939526	     -8.96410594	     -6.28275588	      0.83787930	     -4.56331437	      3.01727334	      5.40804850	     -6.01375259	     -0.85949268	    -59.50330699	      0.62381679	      0.20096995	     19.08927904	     -1.65723779	      7.89451482	      0.25877208
      0.98333333	      7.70701915	     -3.45849564	     -0.43143940	     -0.32062347	      1.08632533	      0.35607496	     -5.01926310	      9.25764828	     -8.68986705	     -5.97016559	      0.84639209	     -4.62330560	      3.00990956	      5.91121052	     -5.87456310	     -0.62639134	    -59.07456616	      0.93229031	     -0.13883718	     18.94189311	     -1.67837664	      7.74323290	      0.37186604
      0.98750000	      7.68547360	     -3.37438599	     -0.53284921	     -0.31603851	      1.08664672	      0.35649324	     -5.39808973	      9.20732972	     -8.42774675	     -5.71564083	      0.87390797	     -4.81407755	      2.99745760	      6.38802882	     -5.70146907	     -0.49872347	    -58.59109216	      1.44358180	     -0.73725432	     18.74662502	     -1.69376882	      7.59599340	      0.50391522
      0.99166667	      7.65437916	     -3.28954515	     -0.73133974	     -0.31156924	      1.08694506	      0.35699495	     -5.73906905	      9.13958384	     -8.13217923	     -5.52058072	      0.86779386	     -5.19374755	      2.97074931	      6.84917417	     -5.53382583	     -0.48211359	    -58.05143665	      1.85329602	     -1.50384782	     18.37805423	     -1.76249487	      7.53974203	      0.68953014
      0.99583333	      7.61743010	     -3.20827883	     -0.83119146	     -0.30702895	      1.08718713	      0.35745637	     -6.10124991	      9.09576724	     -7.81739473	     -5.25772163	      0.86765726	     -5.47590953	      2.94154979	      7.32540423	     -5.37408427	     -0.36655178	    -57.48077964	      2.17929087	     -2.12019479	     17.97991252	     -1.76403244	      7.40182359	      0.88053435
      1.00000000	      7.58453223	     -3.14076873	     -0.84295082	     -0.30253029	      1.08737410	      0.35783009	     -6.47188758	      9.07975250	     -7.56684991	     -4.96687996	      0.89005196	     -5.54004141	      2.92899428	      7.81546322	     -5.22373078	     -0.15173011	    -56.89573383	      2.44464546	     -2.48396528	     17.80217540	     -1.77558591	      7.27834793	      0.97261434
      1.00416667	      7.52623335	     -3.05408792	     -1.03531243	     -0.29806525	      1.08756461	      0.35828614	     -6.77610014	      9.00072753	     -7.31488462	     -4.78405658	      0.91968185	     -5.86694731	      2.89550216	      8.27323804	     -5.05732940	     -0.14675772	    -56.23859402	      2.81880923	     -3.27812564	     17.40675425	     -1.81457922	      7.19238164	      1.11524685
      1.00833333	      7.49565960	     -2.98335307	     -1.02510015	     -0.29353661	      1.08770106	      0.35861647	     -7.15650624	      8.98195564	     -7.06657381	     -4.47953502	      0.94925683	     -5.94084726	      2.88070790	      8.73491599	     -4.90175489	      0.07490876	    -55.56921814	      3.05036696	     -3.65910066	     17.22421807	     -1.77991601	      7.04696360	      1.21025875
      1.01250000	      7.44771600	     -2.89611194	     -1.12231585	     -0.28902188	      1.08782659	      0.35898625	     -7.49216081	      8.91687060	     -6.83891311	     -4.24445430	      1.00366974	     -6.13688650	      2.85887929	      9.17467752	     -4.73295358	      0.16688175	    -54.84534182	      3.39885146	     -4.30309778	     16.98520192	     -1.76637551	      6.89544339	      1.31246547
      1.01666667	      7.38547714	     -2.82174617	     -1.30064913	     -0.28455379	      1.08792086	      0.35955635	     -7.82576645	      8.86858487	     -6.34885150	     -3.97942400	      0.85963385	     -6.89148553	      2.70603115	      9.60117379	     -4.60640774	      0.14708950	    -54.03004873	      3.14752949	     -5.25012968	     15.42824406	     -1.73907191	      6.87643264	      1.70280809
      1.02083333	      7.31515511	     -2.76171045	     -1.31627817	     -0.28014862	      1.08790749	      0.35980845	     -8.12656495	      8.84322118	     -6.19174278	     -3.74285084	      0.95585432	     -6.86031455	      2.69023509	     10.07791297	     -4.46113599	      0.32515983	    -53.28827126	      3.65136953	     -5.59478828	     15.25076455	     -1.79556430	      6.72808968	      1.72353482
      1.02500000	      7.26603566	     -2.68534836	     -1.38300297	     -0.27563414	      1.08793533	      0.36008876	     -8.45260392	      8.78503826	     -6.05331896	     -3.52212046	      1.05497172	     -6.93056325	      2.66955512	     10.48657990	     -4.30405469	      0.43177210	    -52.45998723	      3.97391050	     -6.07445517	     15.04104583	     -1.74808032	      6.61980062	      1.75638972
      1.02916667	      7.18547509	     -2.61965055	     -1.53650350	     -0.27123675	      1.08790344	      0.36044915	     -8.72108676	      8.72294320	     -5.84672150	     -3.34884855	      1.13440910	     -7.16489533	      2.61754291	     10.90978063	     -4.17335673	      0.42823671	    -51.58291414	      4.09208027	     -6.91936978	     14.55689774	     -1.78435076	      6.52581373	      1.80854454
      1.03333333	      7.14092937	     -2.55845776	     -1.50155200	     -0.26673183	      1.08783780	      0.36065415	     -9.07451023	      8.70442104	     -5.67771998	     -3.06189760	      1.17697080	     -7.20553241	      2.59780898	     11.31603354	     -4.03005182	      0.62454040	    -50.70037412	      4.22829364	     -7.21635317	     14.37176677	     -1.72310444	      6.43833798	      1.86234503
      1.03750000	      7.05120116	     -2.49990742	     -1.65786236	     -0.26232054	      1.08773502	      0.36100579	     -9.33202436	      8.64558789	     -5.46064218	     -2.89435831	      1.24758696	     -7.49455972	      2.53599848	     11.72107831	     -3.91520982	      0.59745580	    -49.75359165	      4.30691802	     -8.09733379	     13.83845935	     -1.76506166	      6.33113808	      1.93973292
      1.04166667	      7.00813415	     -2.44409352	     -1.61834823	     -0.25778416	      1.08761073	      0.36117504	     -9.68811459	      8.62874612	     -5.31173704	     -2.60966793	      1.29165600	     -7.54200499	      2.51290834	     12.09473486	     -3.77934932	      0.78079752	    -48.80037622	      4.41469152	     -8.36288612	     13.63738934	     -1.67010208	      6.26878112	      1.99494330
      1.04583333	      6.94489457	     -2.39002237	     -1.66333078	     -0.25327407	      1.08745537	      0.36141373	    -10.00085481	      8.59396281	     -5.16229195	     -2.38578486	      1.37284622	     -7.68436200	      2.48072400	     12.45941984	     -3.66007108	      0.85922437	    -47.80452474	      4.56258981	     -8.89959541	     13.36972345	     -1.62830656	      6.15439366	      2.05073065
      1.05000000	      6.84989095	     -2.36092455	     -1.79399019	     -0.24890683	      1.08724233	      0.36169684	    -10.25561319	      8.56683931	     -4.90829243	     -2.20325712	      1.41549764	     -8.01340661	      2.39225602	     12.84669373	     -3.58457450	      0.82054760	    -46.77011471	      4.39964257	     -9.78298058	     12.67146458	     -1.69750746	      6.10169637	      2.13032442
      1.05416667	      6.80728841	     -2.32566370	     -1.75099305	     -0.24438007	      1.08701707	      0.36182430	    -10.60255744	      8.56523340	     -4.80822190	     -1.94138140	      1.45596077	     -8.03765352	      2.36774988	     13.18283880	     -3.47626743	      0.97710293	    -45.73422666	      4.51818239	     -9.93850008	     12.47791613	     -1.61479314	      6.08936457	      2.16890503
      1.05833333	      6.70930545	     -2.30272422	     -1.85934233	     -0.23995343	      1.08672497	      0.36207873	    -10.85578272	      8.54532996	     -4.60615658	     -1.76652662	      1.54920514	     -8.28745522	      2.27878751	     13.54629048	     -3.41180812	      0.94662244	    -44.65099228	      4.50538282	    -10.66874115	     11.80919964	     -1.64500728	      5.97600499	      2.23549703
      1.06250000	      6.62521170	     -2.30367568	     -1.84106801	     -0.23551129	      1.08637031	      0.36216842	    -11.12607581	      8.57248032	     -4.58869813	     -1.56146773	      1.57605851	     -8.29093938	      2.27150592	     13.91483114	     -3.35166281	      1.04354553	    -43.58446747	      4.58140917	    -10.70339387	     11.75325906	     -1.69184022	      6.06372874	      2.22855475
